<svg width="24" height="30" viewBox="0 0 24 30" fill="none" xmlns="http://www.w3.org/2000/svg">
<path d="M23.3841 24.6191L16.8551 18.0901C18.2802 16.2167 18.9406 13.8719 18.7025 11.5302C18.4645 9.18844 17.3459 7.02453 15.5729 5.47624C13.8 3.92795 11.5052 3.11089 9.1527 3.19036C6.80022 3.26982 4.56575 4.23988 2.90135 5.90428C1.23695 7.56868 0.266893 9.80315 0.187426 12.1556C0.10796 14.5081 0.925022 16.8029 2.47331 18.5759C4.0216 20.3488 6.18551 21.4674 8.52726 21.7055C10.869 21.9435 13.2138 21.2832 15.0871 19.8581L21.6161 26.3871C21.8526 26.6177 22.1698 26.7468 22.5001 26.7468C22.8304 26.7468 23.1477 26.6177 23.3841 26.3871C23.6184 26.1525 23.7499 25.8345 23.7499 25.5031C23.7499 25.1716 23.6184 24.8536 23.3841 24.6191ZM2.75012 12.5001C2.75012 11.165 3.146 9.85998 3.8877 8.74995C4.6294 7.63992 5.68361 6.77476 6.91701 6.26386C8.15041 5.75297 9.50761 5.6193 10.817 5.87975C12.1264 6.1402 13.3291 6.78308 14.2731 7.72708C15.2171 8.67109 15.86 9.87382 16.1204 11.1832C16.3809 12.4926 16.2472 13.8498 15.7363 15.0832C15.2254 16.3166 14.3603 17.3708 13.2502 18.1125C12.1402 18.8542 10.8351 19.2501 9.50012 19.2501C7.71056 19.2479 5.9949 18.5361 4.72949 17.2707C3.46408 16.0053 2.75224 14.2896 2.75012 12.5001Z" fill="#401971"/>
</svg>
