<svg width="20" height="20" viewBox="0 0 20 20" fill="none" xmlns="http://www.w3.org/2000/svg">
<path d="M9.99984 1.6665C5.39984 1.6665 1.6665 5.39984 1.6665 9.99984C1.6665 14.5998 5.39984 18.3332 9.99984 18.3332C14.5998 18.3332 18.3332 14.5998 18.3332 9.99984C18.3332 5.39984 14.5998 1.6665 9.99984 1.6665ZM9.99984 16.6665C6.3165 16.6665 3.33317 13.6832 3.33317 9.99984C3.33317 6.3165 6.3165 3.33317 9.99984 3.33317C13.6832 3.33317 16.6665 6.3165 16.6665 9.99984C16.6665 13.6832 13.6832 16.6665 9.99984 16.6665Z" fill="#A0AEC0"/>
<path d="M10.0002 14.1668C12.3013 14.1668 14.1668 12.3013 14.1668 10.0002C14.1668 7.69898 12.3013 5.8335 10.0002 5.8335C7.69898 5.8335 5.8335 7.69898 5.8335 10.0002C5.8335 12.3013 7.69898 14.1668 10.0002 14.1668Z" fill="#A0AEC0"/>
</svg>
