<svg width="24" height="24" viewBox="0 0 24 24" fill="none" xmlns="http://www.w3.org/2000/svg">
<path d="M20.1212 17.2435C19.679 16.2345 19.0374 15.318 18.2321 14.545C17.4292 13.7698 16.4781 13.1517 15.4313 12.7249C15.4219 12.7204 15.4126 12.7181 15.4032 12.7136C16.8633 11.6974 17.8126 10.0421 17.8126 8.17458C17.8126 5.08083 15.211 2.57422 12.0001 2.57422C8.78912 2.57422 6.18756 5.08083 6.18756 8.17458C6.18756 10.0421 7.13678 11.6974 8.59693 12.7158C8.58756 12.7204 8.57818 12.7226 8.56881 12.7271C7.51881 13.1539 6.57662 13.7659 5.76803 14.5472C4.96344 15.3208 4.32194 16.2372 3.87896 17.2458C3.44378 18.2332 3.20908 19.2918 3.18756 20.3644C3.18693 20.3885 3.19132 20.4125 3.20046 20.4349C3.20961 20.4574 3.22332 20.4778 3.24079 20.4951C3.25826 20.5123 3.27915 20.526 3.30221 20.5354C3.32527 20.5448 3.35004 20.5496 3.37506 20.5496H4.78131C4.88443 20.5496 4.96646 20.4705 4.96881 20.3734C5.01568 18.6301 5.74225 16.9974 7.02662 15.7599C8.35553 14.4795 10.1204 13.7749 12.0001 13.7749C13.8797 13.7749 15.6446 14.4795 16.9735 15.7599C18.2579 16.9974 18.9844 18.6301 19.0313 20.3734C19.0337 20.4728 19.1157 20.5496 19.2188 20.5496H20.6251C20.6501 20.5496 20.6749 20.5448 20.6979 20.5354C20.721 20.526 20.7419 20.5123 20.7593 20.4951C20.7768 20.4778 20.7905 20.4574 20.7997 20.4349C20.8088 20.4125 20.8132 20.3885 20.8126 20.3644C20.7891 19.285 20.5571 18.2349 20.1212 17.2435ZM12.0001 12.0587C10.9243 12.0587 9.91178 11.6545 9.15006 10.9206C8.38834 10.1866 7.96881 9.21109 7.96881 8.17458C7.96881 7.13806 8.38834 6.16251 9.15006 5.42859C9.91178 4.69468 10.9243 4.29046 12.0001 4.29046C13.0758 4.29046 14.0883 4.69468 14.8501 5.42859C15.6118 6.16251 16.0313 7.13806 16.0313 8.17458C16.0313 9.21109 15.6118 10.1866 14.8501 10.9206C14.0883 11.6545 13.0758 12.0587 12.0001 12.0587Z" fill="#F7F2F2"/>
</svg>
