<svg width="27" height="27" viewBox="0 0 27 27" fill="none" xmlns="http://www.w3.org/2000/svg">
<path d="M23.6372 6.70523C22.8578 7.05327 22.0096 7.30376 21.1359 7.40132C22.043 6.84348 22.7223 5.9622 23.0463 4.92282C22.1951 5.44697 21.2627 5.81451 20.2903 6.00914C19.8839 5.55939 19.3923 5.2011 18.8463 4.95659C18.3003 4.71208 17.7115 4.5866 17.1166 4.58796C14.7095 4.58796 12.7737 6.60767 12.7737 9.08616C12.7737 9.43421 12.8144 9.78225 12.8807 10.1171C9.27647 9.922 6.06199 8.13959 3.92494 5.41061C3.53555 6.09909 3.33149 6.88301 3.33401 7.6808C3.33401 9.24173 4.10069 10.6181 5.26983 11.4276C4.58084 11.3995 3.90798 11.2034 3.30599 10.8554V10.9108C3.30599 13.0966 4.79861 14.908 6.78792 15.3246C6.4144 15.425 6.03017 15.4764 5.64426 15.4775C5.36152 15.4775 5.09408 15.4485 4.82408 15.409C5.37426 17.1914 6.97641 18.486 8.88421 18.5282C7.39159 19.7384 5.52199 20.4503 3.49193 20.4503C3.12769 20.4503 2.79147 20.4371 2.44251 20.395C4.36814 21.6738 6.65292 22.412 9.11345 22.412C17.1013 22.412 21.4722 15.5619 21.4722 9.61614C21.4722 9.42103 21.4722 9.22591 21.4594 9.03079C22.3051 8.39008 23.0463 7.59643 23.6372 6.70523Z" fill="#010101"/>
</svg>
