<svg width="20" height="20" viewBox="0 0 20 20" fill="none" xmlns="http://www.w3.org/2000/svg">
<path d="M9.66026 7.39658C8.27536 7.39658 7.14518 8.5665 7.14518 10.0001C7.14518 11.4337 8.27536 12.6036 9.66026 12.6036C11.0452 12.6036 12.1753 11.4337 12.1753 10.0001C12.1753 8.5665 11.0452 7.39658 9.66026 7.39658ZM17.2036 10.0001C17.2036 8.92197 17.213 7.85361 17.1546 6.77744C17.0961 5.52744 16.8206 4.41806 15.9376 3.504C15.0527 2.58798 13.9829 2.30478 12.7753 2.24423C11.7338 2.18369 10.7018 2.19345 9.66214 2.19345C8.62064 2.19345 7.58857 2.18369 6.54896 2.24423C5.34142 2.30478 4.26972 2.58994 3.38671 3.504C2.50181 4.42001 2.22822 5.52744 2.16973 6.77744C2.11124 7.85556 2.12068 8.92392 2.12068 10.0001C2.12068 11.0763 2.11124 12.1466 2.16973 13.2227C2.22822 14.4727 2.5037 15.5821 3.38671 16.4962C4.27161 17.4122 5.34142 17.6954 6.54896 17.7559C7.59046 17.8165 8.62253 17.8067 9.66214 17.8067C10.7036 17.8067 11.7357 17.8165 12.7753 17.7559C13.9829 17.6954 15.0546 17.4102 15.9376 16.4962C16.8225 15.5802 17.0961 14.4727 17.1546 13.2227C17.2149 12.1466 17.2036 11.0782 17.2036 10.0001ZM9.66026 14.0059C7.51876 14.0059 5.79047 12.2169 5.79047 10.0001C5.79047 7.7833 7.51876 5.99423 9.66026 5.99423C11.8018 5.99423 13.53 7.7833 13.53 10.0001C13.53 12.2169 11.8018 14.0059 9.66026 14.0059ZM13.6885 6.76572C13.1885 6.76572 12.7848 6.34775 12.7848 5.83017C12.7848 5.31259 13.1885 4.89462 13.6885 4.89462C14.1885 4.89462 14.5923 5.31259 14.5923 5.83017C14.5925 5.95307 14.5692 6.0748 14.5238 6.18837C14.4784 6.30195 14.4119 6.40514 14.3279 6.49205C14.244 6.57895 14.1443 6.64786 14.0346 6.69482C13.9249 6.74178 13.8073 6.76587 13.6885 6.76572Z" fill="#562595"/>
</svg>
