<svg width="27" height="27" viewBox="0 0 27 27" fill="none" xmlns="http://www.w3.org/2000/svg">
<path d="M23.976 7.80728C23.8461 7.30641 23.5913 6.84965 23.2373 6.4827C22.8833 6.11576 22.4423 5.8515 21.9586 5.71638C20.1782 5.22068 13.0411 5.22068 13.0411 5.22068C13.0411 5.22068 5.90406 5.22068 4.12361 5.71375C3.63971 5.84843 3.19856 6.11253 2.84446 6.47955C2.49036 6.84656 2.23578 7.30356 2.10628 7.80465C1.62997 9.65034 1.62997 13.4999 1.62997 13.4999C1.62997 13.4999 1.62997 17.3495 2.10628 19.1925C2.36864 20.2103 3.14297 21.0119 4.12361 21.2834C5.90406 21.7791 13.0411 21.7791 13.0411 21.7791C13.0411 21.7791 20.1782 21.7791 21.9586 21.2834C22.9418 21.0119 23.7136 20.2103 23.976 19.1925C24.4523 17.3495 24.4523 13.4999 24.4523 13.4999C24.4523 13.4999 24.4523 9.65034 23.976 7.80728ZM10.7742 17.0331V9.96674L16.6835 13.4735L10.7742 17.0331Z" fill="#010101"/>
</svg>
