<svg width="27" height="27" viewBox="0 0 27 27" fill="none" xmlns="http://www.w3.org/2000/svg">
<path d="M13.0413 9.98537C11.1717 9.98537 9.64599 11.5648 9.64599 13.5001C9.64599 15.4354 11.1717 17.0148 13.0413 17.0148C14.9109 17.0148 16.4367 15.4354 16.4367 13.5001C16.4367 11.5648 14.9109 9.98537 13.0413 9.98537ZM23.2248 13.5001C23.2248 12.0446 23.2375 10.6024 23.1585 9.14954C23.0796 7.46205 22.7077 5.96441 21.5156 4.73043C20.321 3.49382 18.8768 3.1115 17.2466 3.02976C15.8406 2.94802 14.4473 2.96121 13.0439 2.96121C11.6379 2.96121 10.2446 2.94802 8.8411 3.02976C7.21093 3.1115 5.76416 3.49646 4.5721 4.73043C3.37749 5.96704 3.00816 7.46205 2.9292 9.14954C2.85024 10.605 2.86297 12.0473 2.86297 13.5001C2.86297 14.9529 2.85024 16.3978 2.9292 17.8506C3.00816 19.5381 3.38004 21.0358 4.5721 22.2697C5.76671 23.5064 7.21093 23.8887 8.8411 23.9704C10.2471 24.0521 11.6404 24.039 13.0439 24.039C14.4499 24.039 15.8432 24.0521 17.2466 23.9704C18.8768 23.8887 20.3236 23.5037 21.5156 22.2697C22.7102 21.0331 23.0796 19.5381 23.1585 17.8506C23.2401 16.3978 23.2248 14.9555 23.2248 13.5001ZM13.0413 18.908C10.1503 18.908 7.81715 16.4927 7.81715 13.5001C7.81715 10.5074 10.1503 8.09222 13.0413 8.09222C15.9323 8.09222 18.2655 10.5074 18.2655 13.5001C18.2655 16.4927 15.9323 18.908 13.0413 18.908ZM18.4795 9.13372C17.8045 9.13372 17.2594 8.56946 17.2594 7.87074C17.2594 7.17201 17.8045 6.60776 18.4795 6.60776C19.1544 6.60776 19.6995 7.17201 19.6995 7.87074C19.6997 8.03665 19.6683 8.20098 19.6071 8.3543C19.5458 8.50763 19.456 8.64694 19.3426 8.76426C19.2293 8.88158 19.0947 8.97461 18.9466 9.038C18.7985 9.1014 18.6397 9.13392 18.4795 9.13372Z" fill="#010101"/>
</svg>
