<svg width="20" height="20" viewBox="0 0 20 20" fill="none" xmlns="http://www.w3.org/2000/svg">
<path d="M17.5095 4.9668C16.9321 5.22462 16.3038 5.41016 15.6567 5.48243C16.3286 5.06922 16.8317 4.41641 17.0717 3.64649C16.4412 4.03475 15.7505 4.30701 15.0302 4.45118C14.7292 4.11803 14.3651 3.85262 13.9606 3.67151C13.5562 3.49039 13.12 3.39744 12.6793 3.39845C10.8963 3.39845 9.46236 4.89454 9.46236 6.73048C9.46236 6.98829 9.49255 7.2461 9.5416 7.49415C6.87181 7.34962 4.49069 6.0293 2.90768 4.00782C2.61924 4.51781 2.46808 5.0985 2.46994 5.68946C2.46994 6.84571 3.03787 7.86524 3.9039 8.46485C3.39353 8.44405 2.89512 8.29883 2.44919 8.04102V8.08204C2.44919 9.70118 3.55484 11.043 5.02842 11.3516C4.75174 11.426 4.46712 11.464 4.18126 11.4649C3.97182 11.4649 3.77371 11.4434 3.57371 11.4141C3.98126 12.7344 5.16804 13.6934 6.58124 13.7246C5.47559 14.6211 4.09069 15.1484 2.58692 15.1484C2.31711 15.1484 2.06806 15.1387 1.80957 15.1074C3.23598 16.0547 4.92842 16.6016 6.75105 16.6016C12.668 16.6016 15.9057 11.5274 15.9057 7.12305C15.9057 6.97852 15.9057 6.83399 15.8963 6.68946C16.5227 6.21485 17.0717 5.62696 17.5095 4.9668Z" fill="#562595"/>
</svg>
